<?xml version="1.0" encoding="UTF-8" standalone="no"?>
<!-- Created with Inkscape (http://www.inkscape.org/) -->

<svg
   xmlns:dc="http://purl.org/dc/elements/1.1/"
   xmlns:cc="http://creativecommons.org/ns#"
   xmlns:rdf="http://www.w3.org/1999/02/22-rdf-syntax-ns#"
   xmlns:svg="http://www.w3.org/2000/svg"
   xmlns="http://www.w3.org/2000/svg"
   xmlns:sodipodi="http://sodipodi.sourceforge.net/DTD/sodipodi-0.dtd"
   xmlns:inkscape="http://www.inkscape.org/namespaces/inkscape"
   width="16"
   height="16"
   id="svg2985"
   version="1.1"
   inkscape:version="0.48.0 r9654"
   sodipodi:docname="FitPlanMan.svg"
   inkscape:export-filename="C:\Users\e212027\Documents\Visual Studio 2008\Projects\FitPlan\FitPlan\Resources\FitPlan16.png"
   inkscape:export-xdpi="90"
   inkscape:export-ydpi="90">
  <defs
     id="defs2987">
    <inkscape:path-effect
       effect="envelope"
       id="path-effect3774"
       is_visible="true"
       yy="true"
       xx="true"
       bendpath1="m 13.726563,-5.0898437 13.856022,0.1107669"
       bendpath2="m 27.289062,-5.0898437 0,20.8085937"
       bendpath3="m 15.747838,15.581573 c 7.003714,-0.94962 8.746587,-0.240401 11.541224,0.137177"
       bendpath4="m 14.106798,-5.2463363 c 0.07535,7.1433447 0.270047,18.8822663 0.215015,21.0051113"
       bendpath4-nodetypes="cc"
       bendpath1-nodetypes="cc"
       bendpath3-nodetypes="cc" />
    <inkscape:path-effect
       effect="bend_path"
       id="path-effect3770"
       is_visible="true"
       bendpath="m 13.726563,5.3144531 13.562499,0"
       prop_scale="1"
       scale_y_rel="false"
       vertical="false" />
    <inkscape:perspective
       sodipodi:type="inkscape:persp3d"
       inkscape:vp_x="0 : 16 : 1"
       inkscape:vp_y="0 : 1000 : 0"
       inkscape:vp_z="32 : 16 : 1"
       inkscape:persp3d-origin="16 : 10.666667 : 1"
       id="perspective16" />
    <inkscape:perspective
       id="perspective3694"
       inkscape:persp3d-origin="0.5 : 0.33333333 : 1"
       inkscape:vp_z="1 : 0.5 : 1"
       inkscape:vp_y="0 : 1000 : 0"
       inkscape:vp_x="0 : 0.5 : 1"
       sodipodi:type="inkscape:persp3d" />
    <inkscape:perspective
       id="perspective3820"
       inkscape:persp3d-origin="0.5 : 0.33333333 : 1"
       inkscape:vp_z="1 : 0.5 : 1"
       inkscape:vp_y="0 : 1000 : 0"
       inkscape:vp_x="0 : 0.5 : 1"
       sodipodi:type="inkscape:persp3d" />
    <inkscape:perspective
       id="perspective3959"
       inkscape:persp3d-origin="0.5 : 0.33333333 : 1"
       inkscape:vp_z="1 : 0.5 : 1"
       inkscape:vp_y="0 : 1000 : 0"
       inkscape:vp_x="0 : 0.5 : 1"
       sodipodi:type="inkscape:persp3d" />
    <inkscape:perspective
       id="perspective4055"
       inkscape:persp3d-origin="0.5 : 0.33333333 : 1"
       inkscape:vp_z="1 : 0.5 : 1"
       inkscape:vp_y="0 : 1000 : 0"
       inkscape:vp_x="0 : 0.5 : 1"
       sodipodi:type="inkscape:persp3d" />
    <inkscape:perspective
       id="perspective4079"
       inkscape:persp3d-origin="0.5 : 0.33333333 : 1"
       inkscape:vp_z="1 : 0.5 : 1"
       inkscape:vp_y="0 : 1000 : 0"
       inkscape:vp_x="0 : 0.5 : 1"
       sodipodi:type="inkscape:persp3d" />
    <filter
       inkscape:collect="always"
       id="filter4265"
       x="-0.085737936"
       width="1.1714759"
       y="-0.10905262"
       height="1.2181052"
       color-interpolation-filters="sRGB">
      <feGaussianBlur
         inkscape:collect="always"
         stdDeviation="0.45785166"
         id="feGaussianBlur4267" />
    </filter>
    <filter
       inkscape:collect="always"
       id="filter4295"
       x="-1.1061387"
       width="3.2122774"
       y="-0.16759676"
       height="1.3351935"
       color-interpolation-filters="sRGB">
      <feGaussianBlur
         inkscape:collect="always"
         stdDeviation="1.018435"
         id="feGaussianBlur4297" />
    </filter>
    <filter
       inkscape:collect="always"
       id="filter4367"
       x="-0.72376245"
       width="2.447525"
       y="-0.81423253"
       height="2.6284652"
       color-interpolation-filters="sRGB">
      <feGaussianBlur
         inkscape:collect="always"
         stdDeviation="0.71968691"
         id="feGaussianBlur4369" />
    </filter>
    <filter
       inkscape:collect="always"
       id="filter4389"
       x="-0.060164385"
       width="1.1203288"
       y="-0.23740539"
       height="1.4748108"
       color-interpolation-filters="sRGB">
      <feGaussianBlur
         inkscape:collect="always"
         stdDeviation="0.6470027"
         id="feGaussianBlur4391" />
    </filter>
    <inkscape:perspective
       id="perspective4417"
       inkscape:persp3d-origin="0.5 : 0.33333333 : 1"
       inkscape:vp_z="1 : 0.5 : 1"
       inkscape:vp_y="0 : 1000 : 0"
       inkscape:vp_x="0 : 0.5 : 1"
       sodipodi:type="inkscape:persp3d" />
    <filter
       inkscape:collect="always"
       id="filter4443"
       x="-0.16545895"
       width="1.330918"
       y="-0.028071852"
       height="1.0561436"
       color-interpolation-filters="sRGB">
      <feGaussianBlur
         inkscape:collect="always"
         stdDeviation="0.092529004"
         id="feGaussianBlur4445" />
    </filter>
    <filter
       inkscape:collect="always"
       id="filter4451"
       x="-0.19687515"
       width="1.3937503"
       y="-0.086301342"
       height="1.1726027"
       color-interpolation-filters="sRGB">
      <feGaussianBlur
         inkscape:collect="always"
         stdDeviation="0.058004835"
         id="feGaussianBlur4453" />
    </filter>
    <filter
       inkscape:collect="always"
       id="filter4455"
       x="-0.19687515"
       width="1.3937503"
       y="-0.086301342"
       height="1.1726027"
       color-interpolation-filters="sRGB">
      <feGaussianBlur
         inkscape:collect="always"
         stdDeviation="0.058004835"
         id="feGaussianBlur4457" />
    </filter>
    <inkscape:perspective
       id="perspective4467"
       inkscape:persp3d-origin="0.5 : 0.33333333 : 1"
       inkscape:vp_z="1 : 0.5 : 1"
       inkscape:vp_y="0 : 1000 : 0"
       inkscape:vp_x="0 : 0.5 : 1"
       sodipodi:type="inkscape:persp3d" />
    <filter
       color-interpolation-filters="sRGB"
       inkscape:collect="always"
       id="filter4443-2"
       x="-0.16545895"
       width="1.330918"
       y="-0.028071852"
       height="1.0561436">
      <feGaussianBlur
         inkscape:collect="always"
         stdDeviation="0.092529004"
         id="feGaussianBlur4445-4" />
    </filter>
    <filter
       inkscape:collect="always"
       id="filter3656"
       x="-0.49855837"
       width="1.9971167"
       y="-0.076143451"
       height="1.1522869"
       color-interpolation-filters="sRGB">
      <feGaussianBlur
         inkscape:collect="always"
         stdDeviation="0.77116803"
         id="feGaussianBlur3658" />
    </filter>
    <filter
       inkscape:collect="always"
       id="filter3660"
       x="-0.35742858"
       width="1.7148571"
       y="-0.072103746"
       height="1.1442075"
       color-interpolation-filters="sRGB">
      <feGaussianBlur
         inkscape:collect="always"
         stdDeviation="0.92144848"
         id="feGaussianBlur3662" />
    </filter>
  </defs>
  <sodipodi:namedview
     id="base"
     pagecolor="#ffffff"
     bordercolor="#666666"
     borderopacity="1.0"
     inkscape:pageopacity="0.0"
     inkscape:pageshadow="2"
     inkscape:zoom="8.0000005"
     inkscape:cx="-3.2633827"
     inkscape:cy="2.6674965"
     inkscape:current-layer="layer1"
     showgrid="true"
     inkscape:grid-bbox="true"
     inkscape:document-units="px"
     inkscape:window-width="1483"
     inkscape:window-height="874"
     inkscape:window-x="6"
     inkscape:window-y="18"
     inkscape:window-maximized="0" />
  <metadata
     id="metadata2990">
    <rdf:RDF>
      <cc:Work
         rdf:about="">
        <dc:format>image/svg+xml</dc:format>
        <dc:type
           rdf:resource="http://purl.org/dc/dcmitype/StillImage" />
        <dc:title></dc:title>
      </cc:Work>
    </rdf:RDF>
  </metadata>
  <g
     id="layer1"
     inkscape:label="Layer 1"
     inkscape:groupmode="layer"
     transform="translate(0,-16)">
    <path
       style="opacity:0.84848489;fill:none;stroke:#000000;stroke-width:2.29999995;stroke-linecap:butt;stroke-linejoin:miter;stroke-miterlimit:4;stroke-opacity:1;stroke-dasharray:none;filter:url(#filter4367)"
       d="M 7.1594561,31.646447 9.5459415,29.525126"
       id="path4329"
       inkscape:connector-curvature="0"
       transform="matrix(1.1816243,0,0,1.1816243,0.10932116,16.088141)" />
    <g
       id="g4373"
       transform="matrix(1.2772969,0,0,1.2328311,-1.0678114,14.830644)">
      <path
         sodipodi:nodetypes="csscccccccsccccccccccccccccccscccscccccccccscccccccccccccccccccccccccccccccss"
         id="path3700"
         d="M 5.4771383,1.7945535 C 4.5729226,1.8553365 3.9627865,2.3058783 4.017987,3.4483171 4.0747487,4.6230649 4.9184665,4.2678767 4.7642316,5.3803002 4.7284246,5.6385751 4.6126155,5.9705684 4.1567811,5.8731467 3.7926793,5.9244636 3.4812968,5.9710027 3.1748077,6.1220251 2.8837143,6.220818 2.679868,6.289044 2.5940979,6.5368226 2.4488141,6.8887495 2.3055694,7.2871464 2.2622712,7.7638615 2.2467807,8.225489 2.3107795,8.7768023 2.1793145,9.1500484 1.9909954,9.37212 1.9701624,9.683471 1.7645311,9.938147 c -0.106499,0.437162 -0.1897511,0.81116 -0.1659133,1.292634 -0.054353,0.555039 0.2163492,0.793483 0.2903483,1.196146 0.087245,0.464929 0.1473564,0.530366 0.3007296,0.865935 0.2983812,0.254628 0.5422835,0.43862 0.6985329,0.546157 0.1202059,0.309086 0.045668,1.384226 -0.00376,1.826255 -0.019787,0.36447 0.019452,0.66991 0.041478,0.992565 0.061387,0.403999 0.168272,0.854641 0.24887,1.285865 0.1752142,0.376672 0.2498376,0.739898 0.4147834,1.161428 0.1037994,0.318575 0.2006586,0.644124 0.2488701,0.954012 0.1187316,0.211776 0.2418577,0.56633 0.373305,0.871059 0.1023187,0.299717 0.241782,0.550755 0.413513,0.922485 0.1610489,0.539367 0.2095098,0.488424 0.2916234,0.944086 0.2315128,0.293076 0.090346,0.749821 0,1.036991 -0.2049703,0.388777 0.036471,1.334741 0.00899,1.874305 0.1149744,0.308518 0.1917214,0.395409 0.3228334,0.572984 0.2147914,0.187453 0.4815008,0.46497 0.9260817,0.37331 0.2586196,-0.296212 0.3904728,-0.583071 0.4354431,-1.223854 -0.1640498,-0.287178 0.00232,-0.743317 -0.075657,-1.057512 -0.1430102,-0.352947 -0.295827,-0.847879 -0.2685507,-1.350503 0.081691,-0.587584 0.1333132,-0.934035 0.2722173,-1.333044 0.055555,-0.165023 0.02589,-0.405049 0.019824,-0.728051 -0.00697,-0.371076 0.00381,-0.541091 -0.1064484,-0.90228 -0.085392,-0.302798 -0.3250648,-0.62915 -0.2488701,-1.036984 0.032458,-0.548198 -0.1115888,-1.979228 0.041478,-1.304099 0.1300924,0.4116 0.2770298,1.766219 0.4147834,2.092202 0.1220424,0.294632 0.298141,0.713559 0.2903483,1.161422 0.1896829,0.398154 0.1017548,0.96697 0.1441157,1.44787 -0.025965,0.436738 -0.011073,0.673076 0.1047544,0.99943 0.1379575,0.269497 0.00158,0.853517 -0.041478,1.201636 -0.085181,0.308729 -0.086057,0.578599 -0.1043308,0.954235 -0.07314,0.46637 -0.080241,0.598754 -0.080839,1.007373 0.1019893,0.347524 0.08799,0.167745 0.092797,0.556192 -0.019578,0.345413 -0.05755,1.210598 -0.096184,1.570272 0.044135,0.43538 -0.1255725,0.954081 -0.075661,1.381182 -0.011626,0.354935 -0.2221495,0.592283 -0.3035974,0.703804 -0.1731057,0.237021 -0.1951742,0.966197 -0.1783102,1.167768 0.5100637,0.02991 1.0962186,0.02461 1.6878521,-0.0069 0.171084,-0.09005 -0.1115744,-1.050286 -0.089407,-1.457375 -0.063133,-0.471317 0.1328561,-0.441107 0.050049,-0.817541 -0.081723,-0.244992 -0.06206,-1.008448 0.051742,-1.241411 0.1752741,-0.224013 0.2036828,-0.657719 0.3508998,-0.948305 0.023001,-0.262258 0.3386477,-0.774168 0.3443919,-1.100883 0.1456712,-0.406279 0.1643002,-1.46762 0.2792375,-1.933326 -0.030284,-0.834041 0.02903,-0.667939 0.020953,-1.492783 0.1772384,-0.800568 -0.00745,-0.696264 0.1252799,-0.885084 0.092028,-0.889116 0.074609,-2.186261 -0.042324,-2.802778 -0.042979,-0.706566 0.028775,-1.065531 -0.08211,-1.748523 C 8.9780709,17.090254 8.8729059,16.497925 8.8989778,15.994349 8.8110493,15.580727 8.8046538,15.103701 8.7330644,14.667007 8.6049159,14.157202 8.5057139,13.573316 8.5256727,12.966343 8.4268762,12.25167 8.4847703,11.249419 8.4551642,10.508708 c 0.3351157,0.201923 0.4831585,0.114407 0.734174,0.383643 0.095619,0.25802 0.2553226,0.329494 0.3733051,0.497743 0.2001193,0.151141 0.4499277,0.435425 0.6221857,0.663664 0.106914,0.214626 0.475739,0.301903 0.580709,0.497749 0.107794,0.236802 0.300432,0.433418 0.62219,0.290351 0.268117,-0.07475 0.37095,-0.337367 0.539221,-0.497743 0.146996,-0.293181 0.25816,-0.657259 0.08296,-0.9955 -0.180968,-0.239906 -0.371951,-0.54741 -0.497745,-0.788099 C 11.384724,10.11015 11.37972,9.3923841 11.180331,9.2331718 10.963707,9.0011388 10.819964,8.492834 10.765544,8.1547067 10.629073,7.8528768 10.548581,7.5453948 10.350761,7.2421511 10.205982,6.8830984 9.8417126,6.7685959 9.5211793,6.5784744 9.2352315,6.387598 8.8466626,6.2289834 8.5671594,6.0392372 8.1803895,5.9331503 7.9013735,5.7628291 7.5716584,5.5829597 7.2870083,5.5149952 7.099215,5.5281307 6.9909514,5.3228417 6.6049107,4.9510668 6.978833,4.672922 7.1568648,4.1311661 7.8359836,2.0645797 6.458115,1.7286105 5.4771383,1.7945535 z"
         style="fill:#ff6a00;fill-opacity:1;stroke:#000000;stroke-width:0.40000001;stroke-linecap:butt;stroke-linejoin:miter;stroke-miterlimit:4;stroke-opacity:1;stroke-dasharray:none"
         inkscape:connector-curvature="0" />
      <path
         sodipodi:nodetypes="cccscccccccccccc"
         id="path3710"
         d="m 8.6069586,8.7911841 c -0.1837722,-0.156815 0.079342,0.088598 0.1145555,0.1625073 0.1755017,0.1871853 0.3836589,0.3318402 0.5696332,0.5065253 0.2453818,0.1451412 0.4751676,0.3128586 0.6940158,0.4956866 0.076874,0.0556 0.3144749,0.1831797 0.2983479,0.1844187 C 10.026824,9.9914818 9.8110451,9.7704463 9.5215398,9.6791067 9.2797457,9.5952076 9.0275783,9.4625967 8.8168692,9.3058509 8.5779303,9.1577551 8.3107587,9.1925639 8.1376092,8.9394959 7.9438663,8.7193903 7.7299324,8.7602675 7.5433384,8.5351311 7.3607826,8.346012 7.1210141,8.1821854 6.89222,8.0534679 6.2424741,7.7133182 6.0955855,7.5621506 5.8321915,7.6173079 c -0.040396,0.1724967 0.250152,0.5043214 0.3922351,0.6034945 0.5156143,0.3000435 0.63545,0.6484878 0.7907536,1.0738693 0.2386408,0.048037 0.2663973,0.3466762 0.4787725,0.43942 0.1573158,0.1653486 0.3041468,0.3439763 0.5021638,0.4624653 0.1645882,0.129118 0.2224502,0.170576 0.4256857,0.306605"
         style="fill:#ff6a00;fill-opacity:1;stroke:#000000;stroke-width:0.40000001;stroke-linecap:butt;stroke-linejoin:miter;stroke-miterlimit:4;stroke-opacity:1;stroke-dasharray:none"
         inkscape:connector-curvature="0" />
      <path
         sodipodi:nodetypes="cccccc"
         id="path3725"
         d="m 2.1622559,13.225546 c 0.2824303,0.29927 0.5645518,0.187197 0.8545718,0.341931 0.3218668,0.02614 0.6157845,-0.207424 0.9643589,-0.899979 C 4.0687041,12.276366 3.2751197,12.475512 3.1975348,12.082824 3.0816821,11.714328 3.2510279,11.073799 3.033236,10.866648 2.885941,10.608925 2.9306554,10.66131 2.6122425,10.315269"
         style="fill:#ff6a00;fill-opacity:1;stroke:#000000;stroke-width:0.40000001;stroke-linecap:butt;stroke-linejoin:miter;stroke-miterlimit:4;stroke-opacity:1;stroke-dasharray:none"
         inkscape:connector-curvature="0" />
      <path
         sodipodi:nodetypes="ccc"
         id="path3727"
         d="m 3.6137655,8.6024878 c -0.089821,0.2989771 -0.1543031,1.4270472 -0.201156,1.7341562 -0.069897,0.256982 -0.07135,0.593859 -0.2705841,0.769695"
         style="fill:#ff6a00;fill-opacity:1;stroke:#000000;stroke-width:0.40000001;stroke-linecap:butt;stroke-linejoin:miter;stroke-miterlimit:4;stroke-opacity:1;stroke-dasharray:none"
         inkscape:connector-curvature="0" />
    </g>
    <path
       style="opacity:0.83838387;fill:none;stroke:#000000;stroke-width:1px;stroke-linecap:butt;stroke-linejoin:miter;stroke-opacity:1;filter:url(#filter4295)"
       d="m 9.6343299,14.057166 1.4142131,6.629126 -0.972272,4.949747 0.795495,3.005204 0.972272,-0.441942"
       id="path4269"
       inkscape:connector-curvature="0"
       transform="matrix(1.1816243,0,0,1.1816243,0.10932116,16.478539)" />
    <path
       style="opacity:0.57476633;fill:none;stroke:#ffffff;stroke-width:1px;stroke-linecap:butt;stroke-linejoin:miter;stroke-opacity:1;filter:url(#filter3656)"
       d="M 4.2426405,1.152468 C 3.8006988,2.2131282 3.8006988,2.3015165 3.8006988,2.3015165 l 0.9722718,1.5909902 -0.088388,1.3258251 -2.2097086,0.088388 -0.53033,1.8561552 -0.8838835,3.181981 0.7954951,1.325825 1.1490485,2.474874 0.265165,3.358757 1.2374368,2.828427 0.088388,3.093592 0.1767767,2.032932"
       id="path2864"
       inkscape:connector-curvature="0"
       transform="matrix(1.1816243,0,0,1.1816243,0.10932116,16.478539)" />
    <path
       style="opacity:0.69158882;fill:none;stroke:#000000;stroke-width:1px;stroke-linecap:butt;stroke-linejoin:miter;stroke-opacity:1;filter:url(#filter3660)"
       d="M 5.1265239,0.62213797 6.8059025,1.5944098 6.3639607,2.4782932 5.922019,4.5996134 9.5459411,6.544157 l 1.7677669,3.889087 -0.08839,1.149049 -2.2980973,-2.0329323 -1.1490485,1.6793783 0.8838835,5.126524 -0.3535534,5.656854 -0.7954951,4.065864 -0.53033,5.214912"
       id="path2866"
       sodipodi:nodetypes="ccccccccccccc"
       inkscape:connector-curvature="0"
       transform="matrix(1.1816243,0,0,1.1816243,0.10932116,16.478539)" />
  </g>
</svg>
