<?xml version="1.0" encoding="UTF-8" standalone="no"?>
<!-- Created with Inkscape (http://www.inkscape.org/) -->

<svg
   xmlns:dc="http://purl.org/dc/elements/1.1/"
   xmlns:cc="http://creativecommons.org/ns#"
   xmlns:rdf="http://www.w3.org/1999/02/22-rdf-syntax-ns#"
   xmlns:svg="http://www.w3.org/2000/svg"
   xmlns="http://www.w3.org/2000/svg"
   xmlns:sodipodi="http://sodipodi.sourceforge.net/DTD/sodipodi-0.dtd"
   xmlns:inkscape="http://www.inkscape.org/namespaces/inkscape"
   width="16"
   height="16"
   id="svg2"
   version="1.1"
   inkscape:version="0.48.0 r9654"
   sodipodi:docname="unlink.svg">
  <defs
     id="defs4">
    <filter
       inkscape:collect="always"
       id="filter4043"
       x="-0.132"
       width="1.264"
       y="-0.79200002"
       height="2.584">
      <feGaussianBlur
         inkscape:collect="always"
         stdDeviation="0.18750957"
         id="feGaussianBlur4045" />
    </filter>
    <filter
       inkscape:collect="always"
       id="filter4047"
       x="-0.111375"
       width="1.22275"
       y="-0.162"
       height="1.324">
      <feGaussianBlur
         inkscape:collect="always"
         stdDeviation="0.18750957"
         id="feGaussianBlur4049" />
    </filter>
    <filter
       inkscape:collect="always"
       id="filter4051"
       x="-0.162"
       width="1.324"
       y="-0.099000001"
       height="1.198">
      <feGaussianBlur
         inkscape:collect="always"
         stdDeviation="0.18750957"
         id="feGaussianBlur4053" />
    </filter>
    <filter
       inkscape:collect="always"
       id="filter4091">
      <feGaussianBlur
         inkscape:collect="always"
         stdDeviation="0.21732485"
         id="feGaussianBlur4093" />
    </filter>
  </defs>
  <sodipodi:namedview
     id="base"
     pagecolor="#ffffff"
     bordercolor="#666666"
     borderopacity="1.0"
     inkscape:pageopacity="0.0"
     inkscape:pageshadow="2"
     inkscape:zoom="15.839192"
     inkscape:cx="-7.4813333"
     inkscape:cy="6.6785266"
     inkscape:document-units="px"
     inkscape:current-layer="layer1"
     showgrid="false"
     inkscape:window-width="1440"
     inkscape:window-height="853"
     inkscape:window-x="-4"
     inkscape:window-y="-4"
     inkscape:window-maximized="1" />
  <metadata
     id="metadata7">
    <rdf:RDF>
      <cc:Work
         rdf:about="">
        <dc:format>image/svg+xml</dc:format>
        <dc:type
           rdf:resource="http://purl.org/dc/dcmitype/StillImage" />
        <dc:title></dc:title>
      </cc:Work>
    </rdf:RDF>
  </metadata>
  <g
     inkscape:label="Layer 1"
     inkscape:groupmode="layer"
     id="layer1"
     transform="translate(0,-1036.3622)">
    <g
       id="g3047"
       transform="matrix(0.24661221,0,0,0.24661221,-12.406659,787.62229)">
      <path
         style="fill:#b8c1c6"
         d="m 64.857891,1072.6126 c -6.646666,-1.6888 -11.487801,-6.7038 -11.496262,-11.9092 -0.01049,-6.451 4.898129,-10.8814 19.166037,-17.2988 10.757405,-4.8384 10.830225,-4.943 10.830225,-15.5586 0,-6.888 1.756569,-11.044 6.385841,-15.1085 7.366314,-6.4677 17.218638,-3.0739 21.178728,7.2955 1.4278,3.7386 1.58005,6.3668 0.96761,16.7034 -0.39973,6.7467 -1.32087,13.6953 -2.04698,15.4414 -1.11665,2.6852 -1.10165,3.2585 0.0973,3.7186 2.73933,1.0512 1.40168,3.7117 -2.8325,5.6336 -2.3375,1.0611 -5.0375,1.9391 -6,1.9511 -0.9625,0.012 -1.75,0.7036 -1.75,1.5367 0,2.2423 -5.381184,5.1121 -11.824836,6.3063 -8.316538,1.5413 -19.237902,2.1619 -22.675164,1.2885 z m -1.673673,-6.981 c 0.975832,-0.6187 0.374571,-1.4024 -2.275262,-2.9659 -1.980874,-1.1687 -3.991747,-3.1459 -4.468605,-4.3938 -0.865499,-2.2648 -0.868229,-2.2642 -1.559769,0.3881 -0.87525,3.3567 0.804314,6.5747 3.725116,7.1371 1.238706,0.2385 2.477193,0.488 2.752193,0.5545 0.275,0.067 1.096847,-0.2575 1.826327,-0.72 z m 17.166519,-7.7211 c 4.580577,-2.4931 4.722163,-2.7022 3.686987,-5.4447 l -1.076516,-2.852 -8.801658,4.5459 c -4.840913,2.5002 -8.801659,4.9503 -8.801659,5.4446 0,2.0534 10.231817,0.8975 14.992846,-1.6938 z m 6.349138,-27.3598 c 0.530972,-9.9742 0.413641,-12.2038 -0.589541,-11.2029 -0.859295,0.8573 -1.317267,5.5509 -1.45895,14.9524 -0.248143,16.4656 1.104106,13.9905 2.048491,-3.7495 z m 15.014225,-6.3153 c -0.99541,-3.486 -4.228554,-4.8345 -6.067406,-2.5306 -0.569902,0.7141 -1.334038,4.8983 -1.698079,9.2983 l -0.661893,8 3.785584,2.0149 3.785584,2.0148 0.88958,-7.7826 c 0.53469,-4.6777 0.52137,-9.072 -0.0334,-11.0148 z m 3.64379,9.7677 c 0,-5 -0.41176,-8.5 -1,-8.5 -0.58823,0 -1,3.5 -1,8.5 0,5 0.41177,8.5 1,8.5 0.58824,0 1,-3.5 1,-8.5 z"
         id="path3061"
         inkscape:connector-curvature="0" />
      <path
         style="fill:#b4bcc1"
         d="m 60.857891,1070.9469 c -2.853965,-1.4687 -6.43007,-5.1384 -6.477764,-6.6473 -0.01223,-0.3869 1.234999,0.018 2.77162,0.9 2.033619,1.1671 3.862399,1.403 6.720729,0.8667 3.517445,-0.6598 3.721398,-0.8516 1.956144,-1.8395 -1.083901,-0.6066 -1.970729,-0.9478 -1.970729,-0.7583 0,0.1895 -1.409773,-0.3845 -3.13283,-1.2755 -1.886314,-0.9755 -3.405733,-2.7074 -3.818708,-4.3528 -0.536956,-2.1394 -0.884761,-2.4184 -1.601857,-1.2849 -0.503789,0.7963 -0.92287,0.946 -0.931292,0.3327 -0.04029,-2.9341 5.183056,-7.0306 15.287734,-11.9898 6.046086,-2.9673 11.601299,-5.3951 12.344918,-5.3951 0.804568,0 1.358235,1.1135 1.367348,2.75 0.0084,1.5125 0.434214,3.4124 0.946205,4.222 1.464021,2.315 1.881727,0.093 2.767061,-14.722 0.770541,-12.8937 0.453104,-15.1082 -1.64848,-11.5 -0.560605,0.9625 -1.031283,1.3 -1.045952,0.75 -0.05677,-2.1285 4.100112,-7.6113 7.206713,-9.5054 6.796128,-4.1437 14.433779,-1.1703 18.609309,7.2446 2.2735,4.5817 2.32081,5.1689 1.45037,17.9985 -0.59322,8.7435 -1.46176,14.3871 -2.54911,16.5636 -0.90712,1.8157 -1.4268,3.8811 -1.15486,4.5898 0.77798,2.0273 -1.9059,3.5936 -8.442703,4.927 -3.32018,0.6773 -6.400556,1.6299 -6.845279,2.117 -0.454579,0.4978 -0.261323,0.5706 0.441413,0.1662 1.764002,-1.0151 1.556114,0.9497 -0.296496,2.8023 -4.282764,4.2828 -25.598077,6.3108 -31.953504,3.0402 z m 26.301383,-8.1938 c 9.031136,-5.0629 11.593757,-7.7397 10.954267,-11.4422 -0.39655,-2.2959 -0.404319,-2.2942 -1.507688,0.3247 -2.074841,4.9247 -17.630124,13.8306 -24.344062,13.9378 -3.378556,0.054 -3.938247,0.2704 -2.4039,0.9297 4.52768,1.9456 8.789402,1.0219 17.301383,-3.75 z m -6.600584,-4.8651 c 4.550766,-2.2931 4.667701,-2.4637 3.663773,-5.3435 l -1.037026,-2.9749 -8.913773,4.4768 c -4.902575,2.4622 -8.913773,4.891 -8.913773,5.3972 0,2.7227 8.420404,1.861 15.200799,-1.5556 z m -9.333655,-6.3299 c 2.808084,-1.1631 4.311982,-3.0809 2.382856,-3.0385 -1.8838,0.041 -8.700049,4.7335 -10.144761,6.9835 l -1.605239,2.5 3.117144,-2.5736 c 1.714429,-1.4156 4.526929,-3.1576 6.25,-3.8714 z m 36.667855,-0.555 c 1.53147,-3.6494 2.95253,-23.0877 2.04249,-27.9387 -0.36139,-1.9263 -1.80417,-4.8657 -3.20617,-6.5319 -4.72731,-5.618 -13.916486,-3.2196 -16.230255,4.2362 -0.552045,1.7789 -1.104679,8.4094 -1.228075,14.7344 -0.281549,14.4316 -0.152882,16.2663 1.087011,15.5 0.55,-0.3399 1.02782,-4.079 1.061823,-8.309 0.116814,-14.532 1.274886,-21.8561 3.897196,-24.6474 3.761488,-4.0039 9.08032,-3.302 11.57797,1.5279 2.79624,5.4074 1.56404,32.9285 -1.4743,32.9285 -0.40791,0 -1.30155,1.2288 -1.98586,2.7307 l -1.2442,2.7307 2.2217,-1.9807 c 1.22194,-1.0894 2.78824,-3.3307 3.48067,-4.9807 z m -5.03654,-9.833 c 2.09616,2.8667 2.78067,1.0237 2.8953,-7.7955 0.0744,-5.7223 -0.26871,-8.3039 -1.14376,-8.6062 -0.91623,-0.3166 -1.29518,1.5261 -1.41919,6.9014 l -0.16919,7.3333 -0.58081,-8.3334 c -0.46698,-6.7002 -0.96476,-8.6136 -2.539899,-9.7631 -1.732564,-1.2644 -2.176016,-1.2128 -3.835166,0.4463 -1.400599,1.4006 -2.014896,3.9014 -2.423807,9.8673 l -0.547729,7.9912 3.882896,1.8959 c 3.746095,1.829 3.894535,1.8313 4.213115,0.064 0.31996,-1.7745 0.37182,-1.7746 1.66824,0 z m -19.149045,-10.667 c 0,-4.675 0.172256,-6.5875 0.382791,-4.25 0.210535,2.3375 0.210535,6.1625 0,8.5 -0.210535,2.3375 -0.382791,0.425 -0.382791,-4.25 z"
         id="path3059"
         inkscape:connector-curvature="0" />
      <path
         style="fill:#aab1b6"
         d="m 60.907156,1070.8921 c -2.97638,-1.6777 -6.454528,-5.2338 -6.515996,-6.6621 -0.0183,-0.4251 1.045039,-0.066 2.362971,0.7971 1.317933,0.8635 4.355433,1.5521 6.75,1.5301 2.394568,-0.022 6.911279,0.2218 10.037136,0.5417 5.373607,0.5499 6.150297,0.3271 14.250031,-4.0881 8.951118,-4.8793 11.566593,-7.4187 11.566593,-11.2302 0,-3.0614 -1.187741,-2.8674 -3.761959,0.6144 -3.014494,4.0773 -18.884356,13.1066 -23.037701,13.1074 -4.18273,9e-4 -8.79828,-2.3538 -9.442474,-4.8172 -0.765987,-2.9292 0.908836,-4.9795 6.298334,-7.7106 2.71909,-1.3778 4.9438,-3.1802 4.9438,-4.0052 0,-1.1969 -1.002898,-0.9918 -4.964094,1.0155 -5.394631,2.7337 -7.372423,5.3872 -7.249067,9.7258 0.04367,1.5358 -0.145091,2.7924 -0.419464,2.7924 -1.758481,0 -4.367375,-2.3752 -4.367375,-3.9762 0,-1.0482 -0.45,-2.1839 -1,-2.5238 -0.55,-0.3399 -1,-0.066 -1,0.6077 0,0.6741 -0.287752,0.9379 -0.639449,0.5862 -0.351697,-0.3517 0.490929,-2.1215 1.872502,-3.9328 1.713879,-2.247 5.65013,-4.7733 12.389449,-7.9514 13.726759,-6.4734 14.360879,-6.6106 14.447783,-3.1271 0.03866,1.5496 0.422073,3.7174 0.852036,4.8174 0.78175,2 0.78175,2 1.376734,0 0.327241,-1.1 0.859097,-5.825 1.181902,-10.5 0.322804,-4.675 0.829026,-10.8625 1.124937,-13.75 0.562585,-5.4897 -0.524993,-6.8575 -2.385399,-3 -0.596824,1.2375 -1.113908,1.8 -1.149077,1.25 -0.132431,-2.0711 4.032114,-7.5926 7.169442,-9.5054 6.328192,-3.8583 13.871199,-1.3687 18.205079,6.0088 1.84526,3.1412 2.0244,4.8689 1.76229,16.9966 -0.24979,11.5579 -0.62124,14.2199 -2.58202,18.5039 -1.25964,2.7522 -2.11754,5.5221 -1.90645,6.1554 0.40371,1.2111 -3.62687,2.7827 -10.041973,3.9155 -2.728977,0.4818 -4.075294,1.3405 -4.707039,3.0021 -1.546389,4.0674 -6.434168,5.7322 -17.970747,6.1212 -8.417658,0.2838 -11.085185,0.024 -13.450735,-1.3091 z m 19.596306,-12.9628 c 4.607455,-2.3347 4.723632,-2.503 3.719001,-5.3848 l -1.037026,-2.9749 -8.913773,4.4768 c -4.902575,2.4622 -8.913773,4.8893 -8.913773,5.3934 0,2.7696 8.340768,1.9378 15.145571,-1.5105 z m 27.093948,-5.9262 c 2.58323,-4.9841 3.77679,-25.8905 1.81709,-31.8285 -3.48152,-10.5491 -16.988572,-9.7782 -20.021776,1.1428 -1.203622,4.3336 -1.400187,28.8419 -0.237087,29.5607 2.04586,1.2644 2.728299,-1.8352 3.054896,-13.875 0.383179,-14.1257 1.658978,-19.0139 5.315633,-20.3665 3.037994,-1.1239 5.203024,-0.4334 7.995894,2.5501 2.22875,2.3809 2.32787,3.1108 2.16215,15.9212 -0.16942,13.0966 -0.24897,13.5483 -3.24346,18.415 -2.60669,4.2364 -2.75651,4.7997 -0.99315,3.7346 1.14214,-0.6899 3.00955,-3.0544 4.14981,-5.2544 z m -4.6318,-10.4106 c 2.314,1.9204 2.89228,0.255 2.89228,-8.3298 0,-5.5695 -0.38817,-8.2097 -1.25,-8.5021 -0.9095,-0.3086 -1.29511,1.4372 -1.41562,6.4092 l -0.16562,6.8333 -0.58438,-7.833 c -0.44848,-6.0114 -1.01394,-8.1465 -2.43158,-9.1813 -4.064202,-2.9666 -6.652799,1.7342 -6.652799,12.0812 0,6.2511 0.01037,6.2735 3.75,8.1007 2.902439,1.4183 3.825389,1.5379 4.083549,0.5293 0.2609,-1.0193 0.64734,-1.0427 1.77417,-0.1075 z m -19.271513,-12.0894 c 0,-4.125 0.176518,-5.8125 0.392262,-3.75 0.215745,2.0625 0.215745,5.4375 0,7.5 -0.215744,2.0625 -0.392262,0.375 -0.392262,-3.75 z"
         id="path3057"
         inkscape:connector-curvature="0" />
      <path
         style="fill:#899096"
         d="m 62.357891,1071.4477 c -3.004407,-1.273 -8.006077,-5.897 -7.984687,-7.3817 0.0084,-0.5846 0.430092,-0.4072 0.937045,0.3943 0.524962,0.8299 3.423982,1.7738 6.734687,2.1928 3.197125,0.4046 8.143514,1.0406 10.991974,1.4132 4.81987,0.6306 5.825399,0.3515 14.5,-4.0247 10.114014,-5.1024 14.09996,-8.5828 13.625,-11.8968 -0.44908,-3.1334 -3.845691,-3.3197 -6.258315,-0.3432 -1.125137,1.388 -5.832499,4.8137 -10.460803,7.6126 -9.147644,5.5319 -14.560337,6.5455 -18.862395,3.5322 -4.278036,-2.9965 -2.520357,-6.301 5.494725,-10.3304 2.911775,-1.4638 4.03948,-2.5833 3.643011,-3.6165 -0.751796,-1.9592 -1.668382,-1.89 -6.305554,0.4757 -4.938423,2.5194 -8.334271,6.785 -7.766405,9.7556 0.238905,1.2498 0.136776,2.2723 -0.226955,2.2723 -1.43798,0 -3.061328,-2.5236 -3.061328,-4.759 0,-1.6293 -0.38667,-2.122 -1.25,-1.5926 -0.765771,0.4695 -0.639905,-0.1856 0.324915,-1.691 1.410864,-2.2014 18.507483,-11.482 24.675085,-13.3945 1.986709,-0.616 2.25,-0.3483 2.25,2.2879 0,5.4268 2.835693,8.9575 3.131641,3.8992 0.08075,-1.3802 0.370692,-0.8969 0.75,1.25 0.457174,2.5877 1.125094,3.5 2.562359,3.5 1.790992,0 1.97307,-0.9036 2.31335,-11.48 0.399366,-12.413 1.236269,-16.3787 1.252821,-5.9367 l 0.01017,6.4167 3.885643,1.6312 c 5.570615,2.3387 8.879535,1.4631 9.400645,-2.4874 0.22808,-1.7291 0.20495,-0.2227 -0.0514,3.3475 -0.29472,4.1046 -1.35274,8.241 -2.87751,11.25 -2.74129,5.4097 -1.78798,6.2234 2.00709,1.7132 3.60428,-4.2834 4.51633,-8.662 4.758,-22.8423 0.12902,-7.5699 0.52239,-11.5463 1.01146,-10.2242 1.35724,3.6689 -0.62508,27.1781 -2.62479,31.1285 -2.70849,5.3504 -5.50556,7.8928 -9.439406,8.5799 -4.205086,0.7345 -12.36098,5.1562 -11.645625,6.3137 1.690535,2.7353 -20.035558,5.3264 -25.444438,3.0345 z m 18.353187,-13.5184 c 2.555747,-1.4285 4.646813,-2.7625 4.646813,-2.9646 0,-0.2021 -0.510455,-1.4878 -1.134345,-2.8571 l -1.134345,-2.4896 -8.865655,4.4526 c -4.87611,2.4489 -8.865655,4.8651 -8.865655,5.3692 0,2.8898 9.078259,1.9966 15.353187,-1.5105 z m 14.646813,-15.5486 c 0,-1.741 -1.779081,-0.8304 -2.304694,1.1796 -0.441414,1.6879 -0.282882,1.8454 0.883368,0.8775 0.781729,-0.6488 1.421326,-1.5745 1.421326,-2.0571 z m 7.174709,-14.0168 c -0.29686,-7.883 -5.204096,-11.2973 -7.980245,-5.5525 -0.582507,1.2055 -1.08956,1.6087 -1.126784,0.8962 -0.08147,-1.5594 4.383352,-6.2045 5.963789,-6.2045 0.61731,0 2.55026,1.4466 4.29545,3.2147 2.60429,2.6385 2.86914,3.2771 1.47751,3.5629 -1.18828,0.2439 -1.80918,1.6008 -2.07529,4.5352 l -0.37972,4.1872 -0.17471,-4.6392 z m -18.902345,-0.8608 c 0,-2.475 0.195016,-3.4875 0.433369,-2.25 0.238353,1.2375 0.238353,3.2625 0,4.5 -0.238353,1.2375 -0.433369,0.225 -0.433369,-2.25 z m 25.727635,-8.7276 c 0,-0.5835 -1.30554,-2.4585 -2.90121,-4.1666 -4.2508,-4.5505 -9.62093,-4.361 -16.347837,0.577 -3.85466,2.8296 -4.754973,3.1932 -3.886011,1.5696 2.997164,-5.6003 11.628858,-8.5998 16.901438,-5.8732 3.25344,1.6824 7.87235,7.3154 6.84271,8.345 -0.335,0.335 -0.60909,0.1317 -0.60909,-0.4518 z"
         id="path3055"
         inkscape:connector-curvature="0" />
      <path
         style="fill:#7b848b"
         d="m 61.857891,1071.1006 c -1.65,-0.7283 -3.812202,-2.236 -4.804895,-3.3503 l -1.804894,-2.026 6.804895,1.6051 c 12.468201,2.9409 16.489168,2.4034 27.388796,-3.6613 9.63055,-5.3586 12.916097,-8.6998 12.916097,-13.135 0,-3.2373 -1.75945,-5.9125 -5.313821,-8.0798 -1.752398,-1.0685 -2.736178,-1.9427 -2.186178,-1.9427 0.55,0 2.433154,0.8738 4.184786,1.9419 2.085703,1.2717 3.313933,1.5544 3.559013,0.8192 0.21425,-0.6427 0.92436,-0.7827 1.66103,-0.3274 1.78626,1.104 0.51423,9.0897 -2.13581,13.4085 l -2.05541,3.3498 2.92856,-1.5145 c 1.6107,-0.8329 3.55082,-2.6771 4.31137,-4.0982 0.76054,-1.4211 1.58346,-2.3831 1.8287,-2.1379 0.24524,0.2452 -0.51253,1.9967 -1.68393,3.892 -2.14218,3.4662 -7.30281,6.6591 -10.762786,6.6591 -1.024221,0 -4.261773,1.616 -7.194561,3.591 -2.932788,1.9751 -6.849827,4.2251 -8.704533,5 -4.21517,1.7612 -14.952821,1.7649 -18.936429,0.01 z m 3.071429,-9.1689 c -2.81897,-2.819 -1.674841,-4.598 4.719879,-7.3391 5.170667,-2.2165 6.644569,-4.3613 4.907931,-7.1421 -0.978579,-1.5669 -0.543981,-1.9827 3.520318,-3.3675 5.731109,-1.9528 5.280443,-2.0149 5.280443,0.7273 0,1.269 1.195322,3.7501 2.656272,5.5136 2.508026,3.0274 2.759168,3.1132 4.5,1.5378 1.01405,-0.9177 1.843728,-2.4291 1.843728,-3.3586 0,-1.4676 2.881571,-5 4.078741,-5 0.231692,0 0.421259,1.2232 0.421259,2.7182 0,3.6978 -2.559305,6.1871 -12.520175,12.1779 -6.97719,4.1963 -9.308874,5.1004 -13.158396,5.102 -2.922079,0 -5.268539,-0.5881 -6.25,-1.5695 z m 12.928571,-2.3414 c 6.916555,-3.2316 7.948515,-4.3709 6.491157,-7.1664 -0.694136,-1.3314 -1.390625,-2.5728 -1.547753,-2.7586 -0.500937,-0.5923 -18.443404,9.0054 -18.443404,9.8657 0,2.3396 8.539273,2.3771 13.5,0.059 z m -20.035909,-1.4731 c -0.93031,-2.2425 0.247897,-4.3734 3.591053,-6.4947 2.431687,-1.543 2.435119,-1.54 0.637109,0.5572 -0.994261,1.1597 -2.176304,3.3944 -2.626762,4.966 -0.72039,2.5133 -0.913228,2.6303 -1.6014,0.9715 z m 52.262268,-15.6198 c 0.54984,-11.0182 1.11341,-12.519 1.12441,-2.9943 0.005,4.125 -0.34166,8.3974 -0.76982,9.4943 -0.42817,1.0968 -0.58773,-1.8282 -0.3546,-6.5 z m -17.426695,-5.9943 c 0,-3.025 0.187466,-4.2625 0.41659,-2.75 0.229125,1.5125 0.229125,3.9875 0,5.5 -0.229124,1.5125 -0.41659,0.275 -0.41659,-2.75 z m 9.816335,-11.4213 c -0.0638,-1.0567 -0.8868,-2.8567 -1.82888,-4 -1.651349,-2.004 -1.629889,-2.0024 0.59737,0.046 1.40367,1.2912 2.12135,2.8608 1.82888,4 -0.46097,1.7953 -0.48628,1.7934 -0.59737,-0.047 z m -5.845166,-15.1829 c 0.332292,-0.3323 1.194792,-0.3678 1.916667,-0.079 0.797733,0.3192 0.560776,0.5562 -0.604167,0.6042 -1.054166,0.043 -1.644791,-0.193 -1.3125,-0.5253 z"
         id="path3053"
         inkscape:connector-curvature="0" />
      <path
         style="fill:#747c82"
         d="m 61.857891,1071.1516 c -1.65,-0.7564 -3.84596,-2.3243 -4.879912,-3.4842 l -1.879912,-2.1089 7.117254,1.9723 c 11.474826,3.1798 14.884358,2.7616 26.345528,-3.2321 5.487989,-2.87 10.814297,-6.4155 11.874491,-7.9044 2.72929,-3.8329 2.43529,-8.1182 -0.827449,-12.0608 l -2.75,-3.323 2.675298,1.7204 c 1.836741,1.1812 2.795571,1.3596 3.059021,0.5693 0.21297,-0.639 0.93503,-0.8105 1.62267,-0.3855 1.71554,1.0603 0.46628,9.1634 -2.05638,13.3384 -1.08005,1.7875 -1.73883,3.25 -1.46396,3.25 1.86152,0 4.10242,-1.7523 6.21293,-4.8581 1.34773,-1.9834 2.45042,-3.1124 2.45042,-2.5089 0,1.2734 -3.7516,6.3241 -5.97651,8.0461 -0.83792,0.6485 -3.09849,1.4698 -5.023489,1.8251 -1.925,0.3554 -6.875,2.7465 -11,5.3136 -6.978005,4.3425 -8.021995,4.6861 -15,4.9367 -4.782517,0.1717 -8.586993,-0.2291 -10.5,-1.106 z m 3.688098,-8.9219 c -1.067718,-1.2865 -0.643731,-1.4196 3.157537,-0.9911 3.388042,0.3819 5.806501,-0.1404 10.589243,-2.2868 5.726109,-2.5697 6.149814,-2.9785 5.560987,-5.3652 -0.996836,-4.0404 -1.971284,-4.3918 -6.198977,-2.235 l -3.941068,2.0106 0.07209,-3.402 c 0.06093,-2.8753 0.499411,-3.4963 2.832376,-4.0112 1.518157,-0.3351 3.430657,-1.2797 4.25,-2.099 1.319619,-1.3197 1.489714,-1.2382 1.489714,0.7136 0,2.737 3.73393,8.9395 5.381559,8.9395 1.895425,0 3.618441,-2.1797 3.618441,-4.5776 0,-1.1976 0.637156,-2.7063 1.415902,-3.3526 1.128869,-0.9369 1.543947,-0.7717 2.047536,0.815 0.99158,3.1242 -1.042529,5.3016 -10.324192,11.0514 -6.632416,4.1086 -9.809833,5.4592 -13.678533,5.8141 -3.677455,0.3375 -5.372586,0.061 -6.272615,-1.0237 z m -8.172785,-4.9176 c -0.0084,-0.93 0.434687,-1.9691 0.984687,-2.309 1.265597,-0.7822 1.265597,0.5416 0,2.5 -0.835399,1.2927 -0.971491,1.2663 -0.984687,-0.191 z m 53.304766,-16.809 c 0,-3.575 0.18149,-5.0375 0.40332,-3.25 0.22182,1.7875 0.22182,4.7125 0,6.5 -0.22183,1.7875 -0.40332,0.325 -0.40332,-3.25 z m -18.12513,-2.5 c -0.02038,-1.65 0.187065,-2.4461 0.460988,-1.769 0.273923,0.677 0.290597,2.027 0.03705,3 -0.25354,0.9729 -0.477659,0.419 -0.498038,-1.231 z"
         id="path3051"
         inkscape:connector-curvature="0" />
      <path
         style="fill:#5e656b"
         d="m 64.107891,1071.8722 c -0.9625,-0.2837 -1.75,-0.9593 -1.75,-1.5014 0,-0.5422 -0.45,-0.7076 -1,-0.3677 -0.55,0.3399 -1,0.1149 -1,-0.5 0,-0.6149 -0.418906,-0.8591 -0.930902,-0.5427 -0.511996,0.3164 -1.167201,0.193 -1.456011,-0.2743 -0.850878,-1.3768 2.506098,-1.1753 8.210127,0.4926 7.311716,2.1381 11.812972,1.1983 22.854185,-4.7715 11.24098,-6.0778 13.54907,-8.667 13.26849,-14.8842 -0.27901,-6.1824 -0.1083,-7.2383 1.05411,-6.5199 1.40379,0.8676 1.22057,8.5692 -0.26474,11.1281 -0.67939,1.1705 -1.8282,3.1103 -2.55291,4.3107 -1.311658,2.1726 -1.303502,2.1752 1.79422,0.5733 1.71153,-0.8851 3.99029,-3.0498 5.06392,-4.8106 1.07362,-1.7608 1.95372,-2.6547 1.95577,-1.9863 0.008,2.6353 -6.23316,8.271 -10.337606,9.3345 -2.287259,0.5926 -7.533653,3.1433 -11.658653,5.6681 -6.767239,4.1421 -8.18391,4.6188 -14.5,4.8788 -3.85,0.1585 -7.7875,0.056 -8.75,-0.2275 z m 8.25,-10.3053 c 1.925,-0.3885 4.9625,-1.4733 6.75,-2.4107 4.370478,-2.2921 4.145819,-1.3792 -0.30716,1.2481 -1.956438,1.1544 -4.993938,2.0471 -6.75,1.9838 l -3.19284,-0.115 3.5,-0.7062 z m 12.489985,-8.1094 c -0.885987,-4.0339 -1.81957,-4.3371 -6.306336,-2.0481 l -3.884945,1.982 0.420444,-2.1942 c 0.265931,-1.3878 1.809387,-2.7863 4.199894,-3.8055 l 3.779449,-1.6113 1.211687,3.3508 c 0.666428,1.843 1.847703,3.9869 2.625056,4.7643 1.213724,1.2137 1.21457,1.4896 0.006,1.9534 -0.944706,0.3625 -1.619047,-0.4236 -2.051238,-2.3914 z m 5.760015,-0.6376 c 0.9625,-1.0859 1.75,-2.6998 1.75,-3.5865 0,-2.208 2.034666,-3.2922 3.061213,-1.6313 0.92441,1.4958 -1.228138,4.4001 -4.550024,6.1391 -1.936506,1.0138 -1.946205,0.9796 -0.261189,-0.9213 z m 20.022369,-11.3168 c 0,-2.475 0.19501,-3.4875 0.43336,-2.25 0.23836,1.2375 0.23836,3.2625 0,4.5 -0.23835,1.2375 -0.43336,0.225 -0.43336,-2.25 z"
         id="path3049"
         inkscape:connector-curvature="0" />
    </g>
    <path
       style="fill:#000000;stroke:#000000;stroke-width:0.59999999999999998;stroke-linecap:butt;stroke-linejoin:miter;stroke-opacity:1;fill-opacity:1;opacity:1;stroke-miterlimit:4;stroke-dasharray:none;filter:url(#filter4051)"
       d="M 7.1342024,5.5196673 4.3562829,0.97398086"
       id="path3063"
       inkscape:connector-curvature="0"
       transform="translate(0,1036.3622)" />
    <path
       style="fill:#000000;stroke:#000000;stroke-width:0.59999999999999998;stroke-linecap:butt;stroke-linejoin:miter;stroke-opacity:1;fill-opacity:1;opacity:1;stroke-miterlimit:4;stroke-dasharray:none;filter:url(#filter4047)"
       d="M 5.9977808,6.2772817 1.9571706,3.4993622"
       id="path3065"
       inkscape:connector-curvature="0"
       transform="translate(0,1036.3622)" />
    <path
       style="fill:#000000;stroke:#000000;stroke-width:0.59999999999999998;stroke-linecap:butt;stroke-linejoin:miter;stroke-opacity:1;fill-opacity:1;opacity:1;stroke-miterlimit:4;stroke-dasharray:none;filter:url(#filter4043)"
       d="M 4.5456865,7.4768379 1.1364216,6.9086271"
       id="path3067"
       inkscape:connector-curvature="0"
       transform="translate(0,1036.3622)" />
    <path
       style="fill:#eedb18;fill-opacity:1;stroke:#000000;stroke-width:0.50000000000000000;stroke-linecap:butt;stroke-linejoin:miter;stroke-miterlimit:4;stroke-opacity:1;stroke-dasharray:none;filter:url(#filter4091)"
       d="M 10.985409,8.1081832 9.5333147,4.6357838 9.0913729,8.1081832 5.8083772,7.5399725 8.5862967,9.3708739 6.6291261,12.338197 10.417198,10.759834 13.321387,13.285215 12.374369,8.9920667 14.89975,6.0878781 z"
       id="path3069"
       inkscape:connector-curvature="0"
       transform="translate(0,1036.3622)"
       sodipodi:nodetypes="ccccccccccc" />
  </g>
</svg>
