<?xml version="1.0" encoding="UTF-8" standalone="no"?>
<!-- Created with Inkscape (http://www.inkscape.org/) -->

<svg
   xmlns:dc="http://purl.org/dc/elements/1.1/"
   xmlns:cc="http://creativecommons.org/ns#"
   xmlns:rdf="http://www.w3.org/1999/02/22-rdf-syntax-ns#"
   xmlns:svg="http://www.w3.org/2000/svg"
   xmlns="http://www.w3.org/2000/svg"
   xmlns:sodipodi="http://sodipodi.sourceforge.net/DTD/sodipodi-0.dtd"
   xmlns:inkscape="http://www.inkscape.org/namespaces/inkscape"
   width="32px"
   height="32px"
   id="svg2985"
   version="1.1"
   inkscape:version="0.48.0 r9654"
   sodipodi:docname="CalendarIcon.svg"
   inkscape:export-filename="/home/ewade/My Documents/Visual Studio 2008/Projects/FitPlan/FitPlan/supplementary/FitPlan.png"
   inkscape:export-xdpi="90"
   inkscape:export-ydpi="90">
  <defs
     id="defs2987">
    <inkscape:path-effect
       effect="envelope"
       id="path-effect3774"
       is_visible="true"
       yy="true"
       xx="true"
       bendpath1="m 13.726563,-5.0898437 13.856022,0.1107669"
       bendpath2="m 27.289062,-5.0898437 0,20.8085937"
       bendpath3="m 15.747838,15.581573 c 7.003714,-0.94962 8.746587,-0.240401 11.541224,0.137177"
       bendpath4="m 14.106798,-5.2463363 c 0.07535,7.1433447 0.270047,18.8822663 0.215015,21.0051113"
       bendpath4-nodetypes="cc"
       bendpath1-nodetypes="cc"
       bendpath3-nodetypes="cc" />
    <inkscape:path-effect
       effect="bend_path"
       id="path-effect3770"
       is_visible="true"
       bendpath="m 13.726563,5.3144531 13.562499,0"
       prop_scale="1"
       scale_y_rel="false"
       vertical="false" />
    <inkscape:perspective
       sodipodi:type="inkscape:persp3d"
       inkscape:vp_x="0 : 16 : 1"
       inkscape:vp_y="0 : 1000 : 0"
       inkscape:vp_z="32 : 16 : 1"
       inkscape:persp3d-origin="16 : 10.666667 : 1"
       id="perspective16" />
    <inkscape:perspective
       id="perspective3694"
       inkscape:persp3d-origin="0.5 : 0.33333333 : 1"
       inkscape:vp_z="1 : 0.5 : 1"
       inkscape:vp_y="0 : 1000 : 0"
       inkscape:vp_x="0 : 0.5 : 1"
       sodipodi:type="inkscape:persp3d" />
    <inkscape:perspective
       id="perspective3820"
       inkscape:persp3d-origin="0.5 : 0.33333333 : 1"
       inkscape:vp_z="1 : 0.5 : 1"
       inkscape:vp_y="0 : 1000 : 0"
       inkscape:vp_x="0 : 0.5 : 1"
       sodipodi:type="inkscape:persp3d" />
    <inkscape:perspective
       id="perspective3959"
       inkscape:persp3d-origin="0.5 : 0.33333333 : 1"
       inkscape:vp_z="1 : 0.5 : 1"
       inkscape:vp_y="0 : 1000 : 0"
       inkscape:vp_x="0 : 0.5 : 1"
       sodipodi:type="inkscape:persp3d" />
    <inkscape:perspective
       id="perspective4055"
       inkscape:persp3d-origin="0.5 : 0.33333333 : 1"
       inkscape:vp_z="1 : 0.5 : 1"
       inkscape:vp_y="0 : 1000 : 0"
       inkscape:vp_x="0 : 0.5 : 1"
       sodipodi:type="inkscape:persp3d" />
    <inkscape:perspective
       id="perspective4079"
       inkscape:persp3d-origin="0.5 : 0.33333333 : 1"
       inkscape:vp_z="1 : 0.5 : 1"
       inkscape:vp_y="0 : 1000 : 0"
       inkscape:vp_x="0 : 0.5 : 1"
       sodipodi:type="inkscape:persp3d" />
    <filter
       inkscape:collect="always"
       id="filter4265"
       x="-0.085737937"
       width="1.1714759"
       y="-0.10905262"
       height="1.2181052">
      <feGaussianBlur
         inkscape:collect="always"
         stdDeviation="0.45785166"
         id="feGaussianBlur4267" />
    </filter>
    <filter
       inkscape:collect="always"
       id="filter4295"
       x="-1.1061387"
       width="3.2122774"
       y="-0.16759676"
       height="1.3351935">
      <feGaussianBlur
         inkscape:collect="always"
         stdDeviation="1.018435"
         id="feGaussianBlur4297" />
    </filter>
    <filter
       inkscape:collect="always"
       id="filter4367"
       x="-0.72376248"
       width="2.447525"
       y="-0.81423254"
       height="2.6284651">
      <feGaussianBlur
         inkscape:collect="always"
         stdDeviation="0.71968691"
         id="feGaussianBlur4369" />
    </filter>
    <filter
       inkscape:collect="always"
       id="filter4389"
       x="-0.060164384"
       width="1.1203288"
       y="-0.23740539"
       height="1.4748108">
      <feGaussianBlur
         inkscape:collect="always"
         stdDeviation="0.6470027"
         id="feGaussianBlur4391" />
    </filter>
    <inkscape:perspective
       id="perspective4417"
       inkscape:persp3d-origin="0.5 : 0.33333333 : 1"
       inkscape:vp_z="1 : 0.5 : 1"
       inkscape:vp_y="0 : 1000 : 0"
       inkscape:vp_x="0 : 0.5 : 1"
       sodipodi:type="inkscape:persp3d" />
    <filter
       inkscape:collect="always"
       id="filter4443"
       x="-0.16545894"
       width="1.3309179"
       y="-0.028071853"
       height="1.0561437">
      <feGaussianBlur
         inkscape:collect="always"
         stdDeviation="0.092529004"
         id="feGaussianBlur4445" />
    </filter>
    <filter
       inkscape:collect="always"
       id="filter4451"
       x="-0.19687516"
       width="1.3937503"
       y="-0.08630134"
       height="1.1726027">
      <feGaussianBlur
         inkscape:collect="always"
         stdDeviation="0.058004835"
         id="feGaussianBlur4453" />
    </filter>
    <filter
       inkscape:collect="always"
       id="filter4455"
       x="-0.19687516"
       width="1.3937503"
       y="-0.08630134"
       height="1.1726027">
      <feGaussianBlur
         inkscape:collect="always"
         stdDeviation="0.058004835"
         id="feGaussianBlur4457" />
    </filter>
    <inkscape:perspective
       id="perspective4467"
       inkscape:persp3d-origin="0.5 : 0.33333333 : 1"
       inkscape:vp_z="1 : 0.5 : 1"
       inkscape:vp_y="0 : 1000 : 0"
       inkscape:vp_x="0 : 0.5 : 1"
       sodipodi:type="inkscape:persp3d" />
    <filter
       color-interpolation-filters="sRGB"
       inkscape:collect="always"
       id="filter4443-2"
       x="-0.16545895"
       width="1.330918"
       y="-0.028071852"
       height="1.0561436">
      <feGaussianBlur
         inkscape:collect="always"
         stdDeviation="0.092529004"
         id="feGaussianBlur4445-4" />
    </filter>
    <filter
       inkscape:collect="always"
       id="filter3656"
       x="-0.49855837"
       width="1.9971167"
       y="-0.076143452"
       height="1.1522869">
      <feGaussianBlur
         inkscape:collect="always"
         stdDeviation="0.77116803"
         id="feGaussianBlur3658" />
    </filter>
    <filter
       inkscape:collect="always"
       id="filter3660"
       x="-0.35742857"
       width="1.7148571"
       y="-0.072103747"
       height="1.1442075">
      <feGaussianBlur
         inkscape:collect="always"
         stdDeviation="0.92144848"
         id="feGaussianBlur3662" />
    </filter>
  </defs>
  <sodipodi:namedview
     id="base"
     pagecolor="#ffffff"
     bordercolor="#666666"
     borderopacity="1.0"
     inkscape:pageopacity="0.0"
     inkscape:pageshadow="2"
     inkscape:zoom="16.000001"
     inkscape:cx="2.9963996"
     inkscape:cy="14.779602"
     inkscape:current-layer="layer1"
     showgrid="true"
     inkscape:grid-bbox="true"
     inkscape:document-units="px"
     inkscape:window-width="1440"
     inkscape:window-height="851"
     inkscape:window-x="-4"
     inkscape:window-y="-4"
     inkscape:window-maximized="1" />
  <metadata
     id="metadata2990">
    <rdf:RDF>
      <cc:Work
         rdf:about="">
        <dc:format>image/svg+xml</dc:format>
        <dc:type
           rdf:resource="http://purl.org/dc/dcmitype/StillImage" />
        <dc:title></dc:title>
      </cc:Work>
    </rdf:RDF>
  </metadata>
  <g
     id="layer1"
     inkscape:label="Layer 1"
     inkscape:groupmode="layer">
    <path
       style="fill:#000000;stroke:none;stroke-width:1px;stroke-linecap:butt;stroke-linejoin:miter;stroke-opacity:1;fill-opacity:1;opacity:0.66161616000000001;filter:url(#filter4389)"
       d="m 28.90299,27.757359 3.005203,2.121321 c -6.045367,1.811851 -12.958021,1.730079 -21.389979,1.59099 L 6.098796,29.790291 28.90299,27.757359 z"
       id="path4379"
       sodipodi:nodetypes="ccccc" />
    <path
       style="fill:none;stroke:#000000;stroke-width:2.29999999999999982;stroke-linecap:butt;stroke-linejoin:miter;stroke-opacity:1;stroke-miterlimit:4;stroke-dasharray:none;filter:url(#filter4367);opacity:0.84848485"
       d="M 7.1594561,31.646447 9.5459415,29.525126"
       id="path4329" />
    <path
       style="fill:#1c232e;stroke:#000000;stroke-width:0.10000000000000001;stroke-linecap:butt;stroke-linejoin:miter;stroke-opacity:1;stroke-miterlimit:4;stroke-dasharray:none;fill-opacity:1"
       d="M 5.5721583,4.2737191 27.653309,4.0437041 28.792632,27.735215 5.734918,29.862851 5.5721583,4.2737191 z"
       id="path3945" />
    <path
       style="fill:#37485c;stroke:#000000;stroke-width:0.20000000000000001;stroke-linecap:butt;stroke-linejoin:miter;stroke-opacity:1;stroke-miterlimit:4;stroke-dasharray:none;fill-opacity:1"
       d="M 8.4475955,6.4013543 8.2995922,13.879283 28.629876,12.725486 28.304355,5.7425604 8.4475955,6.4013543 z"
       id="path3943"
       sodipodi:nodetypes="ccccc" />
    <path
       style="fill:#d9d7ad;stroke:#000000;stroke-width:0.2;stroke-linecap:butt;stroke-linejoin:miter;stroke-opacity:1;fill-opacity:1;stroke-miterlimit:4;stroke-dasharray:none"
       d="M 8.2848296,13.876832 C 8.7044647,19.234268 8.1960119,25.210429 9.5869121,29.920355 16.60511,28.809394 27.944762,26.983773 30.637249,26.385105 29.772187,22.388037 28.80287,15.952274 28.628135,12.784261 L 8.2848296,13.876832 z"
       id="path3947"
       sodipodi:nodetypes="ccccc" />
    <path
       sodipodi:type="arc"
       style="fill:#000000;fill-opacity:1;stroke:none"
       id="path4069"
       sodipodi:cx="42.671875"
       sodipodi:cy="8.859375"
       sodipodi:rx="0.875"
       sodipodi:ry="0.8125"
       d="m 43.546875,8.859375 a 0.875,0.8125 0 1 1 -1.75,0 0.875,0.8125 0 1 1 1.75,0 z"
       transform="matrix(1.2276153,0,0,1.3011595,-40.719194,-1.1558061)" />
    <path
       sodipodi:type="arc"
       style="fill:none;stroke:#cccccc;stroke-width:0.78158391;stroke-miterlimit:4;stroke-opacity:1;stroke-dasharray:none"
       id="path3949"
       sodipodi:cx="42.581085"
       sodipodi:cy="6.0580201"
       sodipodi:rx="1.6572815"
       sodipodi:ry="3.5355339"
       d="m 41.167458,4.2126691 a 1.6572815,3.5355339 0 1 1 0.7489,5.0840292"
       transform="matrix(0.93637427,0,0,1.1746106,-28.332941,-0.73539102)"
       sodipodi:start="3.6907212"
       sodipodi:end="8.2666934"
       sodipodi:open="true" />
    <path
       transform="matrix(1.2276153,0,0,1.3011595,-27.560693,-1.745394)"
       sodipodi:type="arc"
       style="fill:#000000;fill-opacity:1;stroke:none"
       id="path4069-3"
       sodipodi:cx="42.671875"
       sodipodi:cy="8.859375"
       sodipodi:rx="0.875"
       sodipodi:ry="0.8125"
       d="m 43.546875,8.859375 a 0.875,0.8125 0 1 1 -1.75,0 0.875,0.8125 0 1 1 1.75,0 z" />
    <path
       sodipodi:type="arc"
       style="fill:#d9d7ad;fill-opacity:1;stroke:#b20000;stroke-width:0.2;stroke-miterlimit:4;stroke-opacity:1;stroke-dasharray:none"
       id="path3981"
       sodipodi:cx="42.828125"
       sodipodi:cy="8.90625"
       sodipodi:rx="1.015625"
       sodipodi:ry="1.03125"
       d="m 43.84375,8.90625 a 1.015625,1.03125 0 0 1 -2.41e-4,0.022478"
       sodipodi:start="0"
       sodipodi:end="0.021798872"
       sodipodi:open="true"
       transform="matrix(1.2276153,0,0,1.3011595,-40.489016,-1.4810959)" />
    <path
       sodipodi:type="arc"
       style="fill:none;stroke:#cccccc;stroke-width:0.78158391;stroke-miterlimit:4;stroke-opacity:1;stroke-dasharray:none"
       id="path3949-4"
       sodipodi:cx="42.581085"
       sodipodi:cy="6.0580201"
       sodipodi:rx="1.6572815"
       sodipodi:ry="3.5355339"
       d="m 41.072317,4.5951665 a 1.6572815,3.5355339 0 1 1 0.844041,4.7015318"
       transform="matrix(0.93852055,0,0,1.1526002,-15.272899,-1.0632038)"
       sodipodi:start="3.5681702"
       sodipodi:end="8.2666934"
       sodipodi:open="true" />
    <g
       id="g4373"
       transform="matrix(1.0809669,0,0,1.0433359,-0.99619864,-1.3946016)">
      <path
         sodipodi:nodetypes="csscccccccsccccccccccccccccccscccscccccccccscccccccccccccccccccccccccccccccss"
         id="path3700"
         d="M 5.4771383,1.7945535 C 4.5729226,1.8553365 3.9627865,2.3058783 4.017987,3.4483171 4.0747487,4.6230649 4.9184665,4.2678767 4.7642316,5.3803002 4.7284246,5.6385751 4.6126155,5.9705684 4.1567811,5.8731467 3.7926793,5.9244636 3.4812968,5.9710027 3.1748077,6.1220251 2.8837143,6.220818 2.679868,6.289044 2.5940979,6.5368226 2.4488141,6.8887495 2.3055694,7.2871464 2.2622712,7.7638615 2.2467807,8.225489 2.3107795,8.7768023 2.1793145,9.1500484 1.9909954,9.37212 1.9701624,9.683471 1.7645311,9.938147 c -0.106499,0.437162 -0.1897511,0.81116 -0.1659133,1.292634 -0.054353,0.555039 0.2163492,0.793483 0.2903483,1.196146 0.087245,0.464929 0.1473564,0.530366 0.3007296,0.865935 0.2983812,0.254628 0.5422835,0.43862 0.6985329,0.546157 0.1202059,0.309086 0.045668,1.384226 -0.00376,1.826255 -0.019787,0.36447 0.019452,0.66991 0.041478,0.992565 0.061387,0.403999 0.168272,0.854641 0.24887,1.285865 0.1752142,0.376672 0.2498376,0.739898 0.4147834,1.161428 0.1037994,0.318575 0.2006586,0.644124 0.2488701,0.954012 0.1187316,0.211776 0.2418577,0.56633 0.373305,0.871059 0.1023187,0.299717 0.241782,0.550755 0.413513,0.922485 0.1610489,0.539367 0.2095098,0.488424 0.2916234,0.944086 0.2315128,0.293076 0.090346,0.749821 0,1.036991 -0.2049703,0.388777 0.036471,1.334741 0.00899,1.874305 0.1149744,0.308518 0.1917214,0.395409 0.3228334,0.572984 0.2147914,0.187453 0.4815008,0.46497 0.9260817,0.37331 0.2586196,-0.296212 0.3904728,-0.583071 0.4354431,-1.223854 -0.1640498,-0.287178 0.00232,-0.743317 -0.075657,-1.057512 -0.1430102,-0.352947 -0.295827,-0.847879 -0.2685507,-1.350503 0.081691,-0.587584 0.1333132,-0.934035 0.2722173,-1.333044 0.055555,-0.165023 0.02589,-0.405049 0.019824,-0.728051 -0.00697,-0.371076 0.00381,-0.541091 -0.1064484,-0.90228 -0.085392,-0.302798 -0.3250648,-0.62915 -0.2488701,-1.036984 0.032458,-0.548198 -0.1115888,-1.979228 0.041478,-1.304099 0.1300924,0.4116 0.2770298,1.766219 0.4147834,2.092202 0.1220424,0.294632 0.298141,0.713559 0.2903483,1.161422 0.1896829,0.398154 0.1017548,0.96697 0.1441157,1.44787 -0.025965,0.436738 -0.011073,0.673076 0.1047544,0.99943 0.1379575,0.269497 0.00158,0.853517 -0.041478,1.201636 -0.085181,0.308729 -0.086057,0.578599 -0.1043308,0.954235 -0.07314,0.46637 -0.080241,0.598754 -0.080839,1.007373 0.1019893,0.347524 0.08799,0.167745 0.092797,0.556192 -0.019578,0.345413 -0.05755,1.210598 -0.096184,1.570272 0.044135,0.43538 -0.1255725,0.954081 -0.075661,1.381182 -0.011626,0.354935 -0.2221495,0.592283 -0.3035974,0.703804 -0.1731057,0.237021 -0.1951742,0.966197 -0.1783102,1.167768 0.5100637,0.02991 1.0962186,0.02461 1.6878521,-0.0069 0.171084,-0.09005 -0.1115744,-1.050286 -0.089407,-1.457375 -0.063133,-0.471317 0.1328561,-0.441107 0.050049,-0.817541 -0.081723,-0.244992 -0.06206,-1.008448 0.051742,-1.241411 0.1752741,-0.224013 0.2036828,-0.657719 0.3508998,-0.948305 0.023001,-0.262258 0.3386477,-0.774168 0.3443919,-1.100883 0.1456712,-0.406279 0.1643002,-1.46762 0.2792375,-1.933326 -0.030284,-0.834041 0.02903,-0.667939 0.020953,-1.492783 0.1772384,-0.800568 -0.00745,-0.696264 0.1252799,-0.885084 0.092028,-0.889116 0.074609,-2.186261 -0.042324,-2.802778 -0.042979,-0.706566 0.028775,-1.065531 -0.08211,-1.748523 C 8.9780709,17.090254 8.8729059,16.497925 8.8989778,15.994349 8.8110493,15.580727 8.8046538,15.103701 8.7330644,14.667007 8.6049159,14.157202 8.5057139,13.573316 8.5256727,12.966343 8.4268762,12.25167 8.4847703,11.249419 8.4551642,10.508708 c 0.3351157,0.201923 0.4831585,0.114407 0.734174,0.383643 0.095619,0.25802 0.2553226,0.329494 0.3733051,0.497743 0.2001193,0.151141 0.4499277,0.435425 0.6221857,0.663664 0.106914,0.214626 0.475739,0.301903 0.580709,0.497749 0.107794,0.236802 0.300432,0.433418 0.62219,0.290351 0.268117,-0.07475 0.37095,-0.337367 0.539221,-0.497743 0.146996,-0.293181 0.25816,-0.657259 0.08296,-0.9955 -0.180968,-0.239906 -0.371951,-0.54741 -0.497745,-0.788099 C 11.384724,10.11015 11.37972,9.3923841 11.180331,9.2331718 10.963707,9.0011388 10.819964,8.492834 10.765544,8.1547067 10.629073,7.8528768 10.548581,7.5453948 10.350761,7.2421511 10.205982,6.8830984 9.8417126,6.7685959 9.5211793,6.5784744 9.2352315,6.387598 8.8466626,6.2289834 8.5671594,6.0392372 8.1803895,5.9331503 7.9013735,5.7628291 7.5716584,5.5829597 7.2870083,5.5149952 7.099215,5.5281307 6.9909514,5.3228417 6.6049107,4.9510668 6.978833,4.672922 7.1568648,4.1311661 7.8359836,2.0645797 6.458115,1.7286105 5.4771383,1.7945535 z"
         style="fill:#ff6a00;fill-opacity:1;stroke:#000000;stroke-width:0.40000001;stroke-linecap:butt;stroke-linejoin:miter;stroke-miterlimit:4;stroke-opacity:1;stroke-dasharray:none" />
      <path
         sodipodi:nodetypes="cccscccccccccccc"
         id="path3710"
         d="m 8.6069586,8.7911841 c -0.1837722,-0.156815 0.079342,0.088598 0.1145555,0.1625073 0.1755017,0.1871853 0.3836589,0.3318402 0.5696332,0.5065253 0.2453818,0.1451412 0.4751676,0.3128586 0.6940158,0.4956866 0.076874,0.0556 0.3144749,0.1831797 0.2983479,0.1844187 C 10.026824,9.9914818 9.8110451,9.7704463 9.5215398,9.6791067 9.2797457,9.5952076 9.0275783,9.4625967 8.8168692,9.3058509 8.5779303,9.1577551 8.3107587,9.1925639 8.1376092,8.9394959 7.9438663,8.7193903 7.7299324,8.7602675 7.5433384,8.5351311 7.3607826,8.346012 7.1210141,8.1821854 6.89222,8.0534679 6.2424741,7.7133182 6.0955855,7.5621506 5.8321915,7.6173079 c -0.040396,0.1724967 0.250152,0.5043214 0.3922351,0.6034945 0.5156143,0.3000435 0.63545,0.6484878 0.7907536,1.0738693 0.2386408,0.048037 0.2663973,0.3466762 0.4787725,0.43942 0.1573158,0.1653486 0.3041468,0.3439763 0.5021638,0.4624653 0.1645882,0.129118 0.2224502,0.170576 0.4256857,0.306605"
         style="fill:#ff6a00;fill-opacity:1;stroke:#000000;stroke-width:0.40000001;stroke-linecap:butt;stroke-linejoin:miter;stroke-miterlimit:4;stroke-opacity:1;stroke-dasharray:none" />
      <path
         sodipodi:nodetypes="cccccc"
         id="path3725"
         d="m 2.1622559,13.225546 c 0.2824303,0.29927 0.5645518,0.187197 0.8545718,0.341931 0.3218668,0.02614 0.6157845,-0.207424 0.9643589,-0.899979 C 4.0687041,12.276366 3.2751197,12.475512 3.1975348,12.082824 3.0816821,11.714328 3.2510279,11.073799 3.033236,10.866648 2.885941,10.608925 2.9306554,10.66131 2.6122425,10.315269"
         style="fill:#ff6a00;fill-opacity:1;stroke:#000000;stroke-width:0.40000001;stroke-linecap:butt;stroke-linejoin:miter;stroke-miterlimit:4;stroke-opacity:1;stroke-dasharray:none" />
      <path
         sodipodi:nodetypes="ccc"
         id="path3727"
         d="m 3.6137655,8.6024878 c -0.089821,0.2989771 -0.1543031,1.4270472 -0.201156,1.7341562 -0.069897,0.256982 -0.07135,0.593859 -0.2705841,0.769695"
         style="fill:#ff6a00;fill-opacity:1;stroke:#000000;stroke-width:0.40000001;stroke-linecap:butt;stroke-linejoin:miter;stroke-miterlimit:4;stroke-opacity:1;stroke-dasharray:none" />
    </g>
    <g
       style="font-size:28px;font-style:normal;font-weight:normal;fill:#000000;fill-opacity:1;stroke:none;font-family:gargi;-inkscape-font-specification:gargi"
       id="text3749"
       transform="matrix(0.7713668,-0.08161941,0.07103945,0.54130632,2.4268383,19.228787)"
       inkscape:path-effect="#path-effect3774"
       inkscape:transform-center-y="3.1662926"
       inkscape:transform-center-x="-0.3117345">
      <path
         sodipodi:type="inkscape:offset"
         inkscape:radius="0.62202185"
         inkscape:original="M 20.5 -5.09375 C 19.041661 -5.0937299 17.789057 -4.7551886 16.75 -4.0625 C 15.200518 -3.0598778 14.437498 -1.5963375 14.4375 0.28125 C 14.437498 0.86459754 14.523435 1.3750137 14.6875 1.8125 C 14.979164 2.7239707 15.820309 3.6119906 17.1875 4.46875 C 14.890623 5.5625095 13.718748 7.2265703 13.71875 9.46875 C 13.718748 10.981775 14.16927 12.294274 15.0625 13.40625 C 16.338538 14.95573 18.148433 15.718749 20.5 15.71875 C 22.195303 15.718749 23.627593 15.28125 24.8125 14.40625 C 26.453111 13.257814 27.281236 11.632816 27.28125 9.5 C 27.281236 7.2395912 26.127591 5.5312595 23.8125 4.4375 C 24.43228 4.0546985 24.916654 3.7031363 25.28125 3.375 C 26.138007 2.5911582 26.562486 1.5755344 26.5625 0.28125 C 26.562486 -0.94008815 26.229153 -2.0260246 25.5 -2.9375 C 24.388009 -4.3775847 22.70572 -5.0937299 20.5 -5.09375 z M 20.5 -2.875 C 21.119784 -2.8749821 21.682283 -2.7630029 22.15625 -2.5625 C 23.395823 -2.0520662 23.999989 -1.1093589 24 0.3125 C 23.999989 0.85938919 23.880197 1.3567845 23.625 1.8125 C 23.059885 2.9062621 22.013012 3.4687616 20.5 3.46875 C 19.843743 3.4687616 19.260411 3.3489701 18.75 3.09375 C 17.583329 2.5651167 16.999996 1.6432426 17 0.3125 C 16.999996 -0.25258884 17.119787 -0.79425499 17.375 -1.25 C 17.940099 -2.3437326 18.986973 -2.8749821 20.5 -2.875 z M 20.5 5.5625 C 21.374992 5.5625095 22.156241 5.7474051 22.8125 6.09375 C 24.088531 6.8229249 24.718738 7.9505279 24.71875 9.5 C 24.718738 10.302088 24.539051 11.036463 24.15625 11.65625 C 23.427073 12.895836 22.169261 13.500002 20.4375 13.5 C 19.562493 13.500002 18.825514 13.320314 18.1875 12.9375 C 16.929683 12.208336 16.312496 11.049483 16.3125 9.5 C 16.312496 8.7161521 16.492183 8.0130279 16.875 7.375 C 17.604162 6.1718839 18.804682 5.5625095 20.5 5.5625 z "
         id="path4113"
         d="m 20.463789,-5.0307706 c -1.545024,-0.024874 -2.913976,0.2360643 -3.979533,0.9162122 -1.574198,0.9735277 -2.112591,2.6331437 -1.974387,4.63696642 0.04277,0.62013418 0.150562,1.18362288 0.330576,1.68614988 0.0025,0.00793 -8.17e-4,0.022811 0.0018,0.030728 0.282396,0.8649207 0.925396,1.6036912 1.8236,2.2704479 -0.937207,0.7123888 -1.578493,1.5956142 -1.972024,2.623188 -0.03869,0.101022 -0.07489,0.203456 -0.108567,0.3072799 0,1e-7 0,2e-7 0,3e-7 -0.21692,0.6686656 -0.328823,1.397094 -0.2813,2.1735365 0.06641,1.0850784 0.395566,2.0775064 1.02885,2.9032514 0.116745,0.151599 0.24367,0.297571 0.380332,0.437571 0.225177,0.229664 0.476416,0.443295 0.748446,0.640118 0.01313,0.0083 0.02652,0.01623 0.04014,0.02373 0.94395,0.666153 2.000439,1.044561 2.961863,1.241224 0.961424,0.196663 1.827083,0.231992 2.680913,0.260861 0.328355,0.0111 0.63484,0.0165 0.931355,0.0089 0.142944,-0.0036 0.283489,-0.0096 0.422872,-0.01914 0.658914,-0.04373 1.305121,-0.163892 1.899588,-0.530523 0.0095,-0.0055 0.01506,-0.01665 0.02448,-0.02225 0.558106,-0.331893 1.012134,-0.844057 1.328642,-1.491944 0.0765,-0.157319 0.145328,-0.322341 0.206546,-0.494419 0.291244,-0.820644 0.409094,-1.798815 0.370492,-2.870299 -0.02815,-0.7811379 -0.155618,-1.5068125 -0.359652,-2.1719826 0,-1e-7 0,-2e-7 0,-3e-7 -0.03647,-0.1188955 -0.07511,-0.2358836 -0.116059,-0.3509679 -0.350017,-0.983845 -0.849832,-1.8281393 -1.677475,-2.5432213 0.198171,-0.165607 0.432265,-0.3368981 0.577072,-0.5044781 0.701709,-0.8260335 1.069292,-2.0281096 1.130221,-3.40676641 0.05683,-1.28634302 -0.112504,-2.47254239 -0.831831,-3.46092709 -0.745748,-1.0588745 -2.040829,-1.7423841 -3.505968,-2.0628638 -0.0155,-0.00339 -0.03102,-0.00673 -0.04656,-0.010041 0,0 -1e-6,0 -1e-6,0 -0.646733,-0.1374943 -1.32485,-0.208895 -2.034402,-0.2203326 z m 0.198402,3.1428434 c 0.576382,0.00777 1.086661,0.096349 1.507345,0.257992 0.195957,0.073446 0.371702,0.1523554 0.528367,0.2385886 0.04837,0.026236 0.09486,0.053101 0.139537,0.080647 0.703958,0.42613467 0.96364,1.00336555 0.981875,1.92440229 0.0086,0.43361061 -0.0641,0.78337751 -0.264879,1.11291541 -0.01089,0.00885 -0.02142,0.018091 -0.03158,0.027696 -0.148327,0.2643125 -0.330376,0.4793894 -0.566641,0.6462436 -0.06234,0.046863 -0.128401,0.090126 -0.198571,0.1298572 -0.446943,0.268858 -1.054022,0.3848825 -1.885556,0.3765215 -0.603293,-0.00605 -1.097746,-0.1042264 -1.521806,-0.2948494 -0.01052,-1.163e-4 -0.02102,1.95e-5 -0.0315,4.071e-4 C 18.299185,2.1974217 17.908752,1.6110093 17.848,0.51462854 c -0.02523,-0.45534015 0.03721,-0.8631076 0.210013,-1.18987704 0.0101,-0.009539 0.01983,-0.0194347 0.02919,-0.0296625 0.408281,-0.84120268 1.128493,-1.20245458 2.574993,-1.18301618 z m 0.360187,7.9705911 c 0.674622,0.00534 1.283606,0.1465715 1.791005,0.3795941 0.09031,0.040917 0.17697,0.084444 0.259971,0.1303519 0.0048,0.00263 0.0097,0.00527 0.01448,0.00791 0.237418,0.1422944 0.43707,0.2919996 0.607221,0.4508402 0.07615,0.071067 0.146377,0.1439733 0.211298,0.2189014 0,10e-8 0,10e-8 0,2e-7 0.497659,0.5741504 0.701114,1.2697156 0.731904,2.1720987 0.02277,0.6677936 -0.08368,1.2346966 -0.334084,1.6574276 -0.225895,0.40349 -0.526472,0.675929 -0.942527,0.842261 -0.119617,0.05163 -0.248194,0.09402 -0.38711,0.128337 0,0 0,0 0,0 -0.291614,0.07776 -0.624507,0.117133 -1.008959,0.130051 0,0 0,0 0,0 -1e-6,0 -1e-6,0 -1e-6,0 0,0 0,0 0,0 0,0 0,0 0,0 0,0 0,0 0,0 0,0 0,0 0,0 0,0 -1e-6,0 -1e-6,0 -0.131238,0.0044 -0.268497,0.0057 -0.412218,0.0044 -0.132748,-0.0011 -0.261004,-0.0054 -0.385407,-0.01313 -0.530893,-0.03339 -0.992142,-0.132326 -1.430201,-0.328225 -1.103751,-0.475899 -1.733202,-1.221143 -1.898713,-2.5202489 -0.08236,-0.6463921 -0.0025,-1.2143982 0.255813,-1.7465111 0.0705,-0.1435863 0.148485,-0.2768508 0.234781,-0.3998873 0,-1e-7 0,-1e-7 0,-2e-7 0.04467,-0.063714 0.09157,-0.1247218 0.140849,-0.1830205 0,0 0,0 0,-1e-7 0.526207,-0.6228182 1.324767,-0.9408888 2.551904,-0.931189 z" />
    </g>
    <path
       style="fill:#ffffff;stroke:none;stroke-width:1px;stroke-linecap:butt;stroke-linejoin:miter;stroke-opacity:1;fill-opacity:1;opacity:0.80808081;filter:url(#filter4265)"
       d="m 28.284271,17.857864 1.325825,7.424622 -12.81631,2.651651 c 3.509409,-0.931576 7.709675,-2.985168 9.457553,-4.507807 l 2.032932,-5.568466 z"
       id="path4199"
       sodipodi:nodetypes="ccccc" />
    <path
       style="opacity:0.83838387;fill:none;stroke:#000000;stroke-width:1px;stroke-linecap:butt;stroke-linejoin:miter;stroke-opacity:1;filter:url(#filter4295)"
       d="m 9.6343299,14.057166 1.4142131,6.629126 -0.972272,4.949747 0.795495,3.005204 0.972272,-0.441942"
       id="path4269" />
    <path
       style="fill:none;stroke:#000000;stroke-width:0.40000000000000002;stroke-linecap:butt;stroke-linejoin:miter;stroke-opacity:1;stroke-miterlimit:4;stroke-dasharray:none;opacity:0.70707070999999999;filter:url(#filter4455)"
       d="m 11.468388,2.4340977 c -0.30408,0.355354 -0.776867,0.9900268 -0.90598,1.8119612"
       id="path4399"
       sodipodi:nodetypes="cc" />
    <path
       style="opacity:0.70707067999999995;fill:none;stroke:#000000;stroke-width:0.40000001000000002;stroke-linecap:butt;stroke-linejoin:miter;stroke-miterlimit:4;stroke-opacity:1;stroke-dasharray:none;filter:url(#filter4451)"
       d="m 24.455996,2.1470413 c -0.30408,0.355354 -0.821061,1.056318 -0.950174,1.8782524"
       id="path4399-4"
       sodipodi:nodetypes="cc" />
    <path
       style="fill:none;stroke:#ffffff;stroke-width:0.20000000000000001;stroke-linecap:butt;stroke-linejoin:miter;stroke-opacity:1;stroke-miterlimit:4;stroke-dasharray:none;filter:url(#filter4443)"
       d="m 24.748737,1.8595735 c 0.132583,0.1767767 1.193243,0.8838835 1.325826,3.4913397 0.132582,2.6074563 -0.574525,4.1542524 -0.972272,4.4194174"
       id="path4437" />
    <path
       style="fill:none;stroke:#ffffff;stroke-width:0.2;stroke-linecap:butt;stroke-linejoin:miter;stroke-miterlimit:4;stroke-opacity:1;stroke-dasharray:none;filter:url(#filter4443-2)"
       d="m 11.659102,2.0584473 c 0.132583,0.1767767 1.193243,0.8838835 1.325826,3.4913397 0.132582,2.6074563 -0.574525,4.1542524 -0.972272,4.4194174"
       id="path4437-2" />
    <path
       style="fill:none;stroke:#ffffff;stroke-width:1px;stroke-linecap:butt;stroke-linejoin:miter;stroke-opacity:1;opacity:0.57476636000000003;filter:url(#filter3656)"
       d="M 4.2426405,1.152468 C 3.8006988,2.2131282 3.8006988,2.3015165 3.8006988,2.3015165 l 0.9722718,1.5909902 -0.088388,1.3258251 -2.2097086,0.088388 -0.53033,1.8561552 -0.8838835,3.181981 0.7954951,1.325825 1.1490485,2.474874 0.265165,3.358757 1.2374368,2.828427 0.088388,3.093592 0.1767767,2.032932"
       id="path2864" />
    <path
       style="fill:none;stroke:#000000;stroke-width:1px;stroke-linecap:butt;stroke-linejoin:miter;stroke-opacity:1;filter:url(#filter3660);opacity:0.69158879"
       d="M 5.1265239,0.62213797 6.8059025,1.5944098 6.3639607,2.4782932 5.922019,4.5996134 9.5459411,6.544157 l 1.7677669,3.889087 -0.08839,1.149049 -2.2980973,-2.0329323 -1.1490485,1.6793783 0.8838835,5.126524 -0.3535534,5.656854 -0.7954951,4.065864 -0.53033,5.214912"
       id="path2866"
       sodipodi:nodetypes="ccccccccccccc" />
  </g>
</svg>
